<?xml version="1.0" encoding="utf-8"?>
<!-- Generator: $$$/GeneralStr/196=Adobe Illustrator 27.6.0, SVG Export Plug-In . SVG Version: 6.00 Build 0)  -->
<svg version="1.1" id="圖層_1" xmlns="http://www.w3.org/2000/svg" xmlns:xlink="http://www.w3.org/1999/xlink" x="0px" y="0px"
	 viewBox="0 0 32 32" style="enable-background:new 0 0 32 32;" xml:space="preserve">
<style type="text/css">
	.st0{fill:none;}
</style>
<g id="Layer_2">
	<path d="M9.4,3.7C9.4,3.7,9.4,3.7,9.4,3.7c0.6-0.6,1.5-0.6,2,0L22.6,15c0,0,0,0,0,0c0.5,0.6,0.5,1.4,0,2L11.4,28.3
		c-0.6,0.6-1.5,0.6-2,0c-0.6-0.6-0.6-1.5,0-2L19.7,16L9.4,5.7c-0.3-0.3-0.4-0.6-0.4-1C8.9,4.3,9.1,4,9.4,3.7z"/>
</g>
<g id="frame">
	<rect y="0" class="st0" width="32" height="32"/>
</g>
</svg>
