<?xml version="1.0" encoding="utf-8"?>
<!-- Generator: $$$/GeneralStr/196=Adobe Illustrator 27.6.0, SVG Export Plug-In . SVG Version: 6.00 Build 0)  -->
<svg version="1.1" id="圖層_1" xmlns="http://www.w3.org/2000/svg" xmlns:xlink="http://www.w3.org/1999/xlink" x="0px" y="0px"
	 viewBox="0 0 32 32" style="enable-background:new 0 0 32 32;" xml:space="preserve">
<style type="text/css">
	.st0{fill:#FFFFFF;}
	.st1{fill:none;}
</style>
<g id="Layer_2">
	<path class="st0" d="M4.7,8.9c0.4,0,0.7,0.1,1,0.4L16,19.7L26.3,9.4c0.6-0.6,1.5-0.6,2,0c0.6,0.6,0.6,1.5,0,2L17,22.6
		c-0.5,0.6-1.4,0.6-2,0c0,0,0,0,0,0L3.7,11.4c-0.6-0.5-0.6-1.4,0-2c0,0,0,0,0,0C4,9.1,4.3,8.9,4.7,8.9z"/>
</g>
<g id="frame">
	<rect y="0" class="st1" width="32" height="32"/>
</g>
</svg>
