<?xml version="1.0" encoding="utf-8"?>
<!-- Generator: $$$/GeneralStr/196=Adobe Illustrator 27.6.0, SVG Export Plug-In . SVG Version: 6.00 Build 0)  -->
<svg version="1.1" id="圖層_1" xmlns="http://www.w3.org/2000/svg" xmlns:xlink="http://www.w3.org/1999/xlink" x="0px" y="0px"
	 viewBox="0 0 32 32" style="enable-background:new 0 0 32 32;" xml:space="preserve">
<style type="text/css">
	.st0{fill:#FFFFFF;}
	.st1{fill:none;}
</style>
<g id="Layer_2">
	<path class="st0" d="M3.7,22.6C3.7,22.6,3.7,22.6,3.7,22.6c-0.6-0.6-0.6-1.5,0-2L15,9.4c0,0,0,0,0,0c0.6-0.5,1.4-0.5,2,0l11.3,11.3
		c0.6,0.6,0.6,1.5,0,2c-0.6,0.6-1.5,0.6-2,0L16,12.3L5.7,22.6c-0.3,0.3-0.6,0.4-1,0.4C4.3,23.1,4,22.9,3.7,22.6z"/>
</g>
<g id="frame">
	<rect y="0" class="st1" width="32" height="32"/>
</g>
</svg>
