<?xml version="1.0" encoding="utf-8"?>
<!-- Generator: $$$/GeneralStr/196=Adobe Illustrator 27.6.0, SVG Export Plug-In . SVG Version: 6.00 Build 0)  -->
<svg version="1.1" id="圖層_1" xmlns="http://www.w3.org/2000/svg" xmlns:xlink="http://www.w3.org/1999/xlink" x="0px" y="0px"
	 viewBox="0 0 32 32" style="enable-background:new 0 0 32 32;" xml:space="preserve">
<style type="text/css">
	.st0{fill:none;}
</style>
<g id="Layer_2">
	<path d="M27.3,23.1c-0.4,0-0.7-0.1-1-0.4L16,12.3L5.7,22.6c-0.6,0.6-1.5,0.6-2,0s-0.6-1.5,0-2L15,9.4c0.5-0.6,1.4-0.6,2,0
		c0,0,0,0,0,0l11.3,11.3c0.6,0.5,0.6,1.4,0,2c0,0,0,0,0,0C28,22.9,27.7,23.1,27.3,23.1z"/>
</g>
<g id="frame">
	<rect y="0" class="st0" width="32" height="32"/>
</g>
</svg>
