<?xml version="1.0" encoding="utf-8"?>
<!-- Generator: $$$/GeneralStr/196=Adobe Illustrator 27.6.0, SVG Export Plug-In . SVG Version: 6.00 Build 0)  -->
<svg version="1.1" id="圖層_1" xmlns="http://www.w3.org/2000/svg" xmlns:xlink="http://www.w3.org/1999/xlink" x="0px" y="0px"
	 viewBox="0 0 32 32" style="enable-background:new 0 0 32 32;" xml:space="preserve">
<style type="text/css">
	.st0{fill:#FFFFFF;}
	.st1{fill:none;}
</style>
<g id="Layer_2">
	<path class="st0" d="M23.1,4.7c0,0.4-0.1,0.7-0.4,1L12.3,16l10.3,10.3c0.6,0.6,0.6,1.5,0,2s-1.5,0.6-2,0L9.4,17
		c-0.6-0.5-0.6-1.4,0-2c0,0,0,0,0,0L20.6,3.7c0.5-0.6,1.4-0.6,2,0c0,0,0,0,0,0C22.9,4,23.1,4.3,23.1,4.7z"/>
</g>
<g id="frame">
	<rect y="0" class="st1" width="32" height="32"/>
</g>
</svg>
