<?xml version="1.0" encoding="utf-8"?>
<!-- Generator: $$$/GeneralStr/196=Adobe Illustrator 27.6.0, SVG Export Plug-In . SVG Version: 6.00 Build 0)  -->
<svg version="1.1" id="Layer_1" xmlns="http://www.w3.org/2000/svg" xmlns:xlink="http://www.w3.org/1999/xlink" x="0px" y="0px"
	 viewBox="0 0 200 200" style="enable-background:new 0 0 200 200;" xml:space="preserve">
<path d="M169,170.7l-2-4c-6.8-13.6-17.6-24.8-31-32c18.1-12.3,28.9-32.7,29-54.5c0.1-35.9-29-65.1-64.9-65.1S35.1,44.1,35,80
	c0,21.8,10.8,42.2,29,54.2c-13.4,7.2-24.2,18.4-31,32l-2,4c-2.5,5-0.5,11,4.5,13.5s11,0.5,13.5-4.5l2-4c13.8-27.1,46.9-37.8,74-24
	c10.3,5.3,18.7,13.7,24,24l2,4c2.4,5,8.4,7,13.4,4.6c0,0,0.1,0,0.1-0.1C169.5,181.7,171.5,175.7,169,170.7z M55,80.2
	c0-24.9,20.1-45,45-45s45,20.1,45,45s-20.1,45-45,45c-24.7,0.1-44.9-19.9-45-44.6C55,80.5,55,80.3,55,80.2z"/>
</svg>
