<?xml version="1.0" encoding="utf-8"?>
<!-- Generator: $$$/GeneralStr/196=Adobe Illustrator 27.6.0, SVG Export Plug-In . SVG Version: 6.00 Build 0)  -->
<svg version="1.1" id="圖層_1" xmlns="http://www.w3.org/2000/svg" xmlns:xlink="http://www.w3.org/1999/xlink" x="0px" y="0px"
	 viewBox="0 0 28.4 28.4" style="enable-background:new 0 0 28.4 28.4;" xml:space="preserve">
<style type="text/css">
	.st0{fill:#999999;}
</style>
<path class="st0" d="M26.3,23.9L20.5,18c0,0-0.1-0.1-0.2-0.1c1.3-1.8,2-3.9,2-6.2C22.3,5.8,17.5,1,11.7,1C5.8,1,1,5.8,1,11.7
	c0,5.9,4.8,10.7,10.7,10.7c2.1,0,4.1-0.6,5.8-1.7c0.1,0.1,0.1,0.1,0.2,0.2l5.9,5.9c0.4,0.4,0.9,0.6,1.4,0.6s1-0.2,1.4-0.6
	C27.1,25.9,27.1,24.7,26.3,23.9z M11.7,18.4c-3.7,0-6.7-3-6.7-6.7S8,5,11.7,5s6.7,3,6.7,6.7S15.3,18.4,11.7,18.4z"/>
</svg>
