<?xml version="1.0" encoding="utf-8"?>
<!-- Generator: $$$/GeneralStr/196=Adobe Illustrator 27.6.0, SVG Export Plug-In . SVG Version: 6.00 Build 0)  -->
<svg version="1.1" id="圖層_1" xmlns="http://www.w3.org/2000/svg" xmlns:xlink="http://www.w3.org/1999/xlink" x="0px" y="0px"
	 viewBox="0 0 32 32" style="enable-background:new 0 0 32 32;" xml:space="preserve">
<style type="text/css">
	.st0{fill:none;}
</style>
<g id="Layer_2">
	<path d="M28.3,9.4C28.3,9.4,28.3,9.4,28.3,9.4c0.6,0.6,0.6,1.5,0,2L17,22.6c0,0,0,0,0,0c-0.6,0.5-1.4,0.5-2,0L3.7,11.4
		c-0.6-0.6-0.6-1.5,0-2s1.5-0.6,2,0L16,19.7L26.3,9.4c0.3-0.3,0.6-0.4,1-0.4C27.7,8.9,28,9.1,28.3,9.4z"/>
</g>
<g id="frame">
	<rect y="0" class="st0" width="32" height="32"/>
</g>
</svg>
