<?xml version="1.0" encoding="utf-8"?>
<!-- Generator: $$$/GeneralStr/196=Adobe Illustrator 27.6.0, SVG Export Plug-In . SVG Version: 6.00 Build 0)  -->
<svg version="1.1" id="圖層_1" xmlns="http://www.w3.org/2000/svg" xmlns:xlink="http://www.w3.org/1999/xlink" x="0px" y="0px"
	 viewBox="0 0 32 32" style="enable-background:new 0 0 32 32;" xml:space="preserve">
<style type="text/css">
	.st0{fill:#FFFFFF;}
	.st1{fill:none;}
</style>
<path class="st0" d="M12.6,16L24,4.8c0.4-0.4,0.6-0.9,0.6-1.5c0-0.7-0.4-1.2-0.7-1.5C23.4,1.2,22.8,1,22.2,1c-0.6,0-1.1,0.3-1.4,0.7
	L8.1,14.5c-0.5,0.5-0.7,1.1-0.7,1.7c0,0.6,0.3,1.1,0.7,1.4l12.6,12.7c0.4,0.5,0.9,0.7,1.5,0.7c0.6,0,1.2-0.2,1.6-0.6
	c0.4-0.4,0.7-0.9,0.7-1.4c0-0.6-0.2-1.2-0.7-1.7L12.6,16z"/>
<g id="frame">
	<rect y="0" class="st1" width="32" height="32"/>
</g>
</svg>
