<?xml version="1.0" encoding="UTF-8"?><svg id="Capa_1" xmlns="http://www.w3.org/2000/svg" viewBox="0 0 512 512"><defs><style>.cls-1{fill:#fff;}</style></defs><g id="Cloud_Computing"><path class="cls-1" d="m390.14,285.86l-120-120c-3.63-3.62-8.77-5.86-14.14-5.86h-80c-33.08,0-60,26.92-60,60v232c0,33.08,26.92,60,60,60h160c33.08,0,60-26.92,60-60v-152c0-5.09-2.03-10.32-5.86-14.14Zm-114.14-57.57l51.72,51.72h-31.72c-11.03,0-20-8.97-20-20v-31.72Zm60,243.72h-160c-11.03,0-20-8.97-20-20v-232c0-11.03,8.97-20,20-20h60v60c0,33.08,26.92,60,60,60h60v132c0,11.03-8.97,20-20,20Z"/><path class="cls-1" d="m434.58,120.04C424.86,52.26,366.42,0,296,0,258.4,0,222.81,15.27,196.45,42.3c-6.89-1.53-13.73-2.3-20.45-2.3-48.3,0-88.71,34.42-98,80.02C34.81,121.09,0,156.56,0,200c0,33.85,21.43,64.17,53.33,75.44,10.41,3.68,21.84-1.78,25.52-12.19,3.68-10.41-1.78-21.84-12.19-25.52-15.95-5.64-26.67-20.8-26.67-37.73,0-22.06,17.94-40,40-40h16c11.05,0,20-8.95,20-20,0-33.08,26.92-60,60-60,6.49,0,13.1,1.25,20.23,3.82,8.02,2.89,16.99.39,22.35-6.25,19.29-23.88,47.51-37.57,77.43-37.57,55.14,0,100,44.86,100,100,0,11.05,8.95,20,20,20h16c22.06,0,40,17.94,40,40,0,19.67-14.63,36.67-34.03,39.56-10.93,1.63-18.46,11.8-16.84,22.73,1.63,10.93,11.81,18.46,22.73,16.84,18.79-2.8,36.02-12.26,48.53-26.65,12.64-14.54,19.61-33.18,19.61-52.47,0-43.25-34.5-78.59-77.42-79.96Z"/><path class="cls-1" d="m296,400h-80c-11.05,0-20-8.95-20-20s8.95-20,20-20h80c11.05,0,20,8.95,20,20s-8.95,20-20,20Z"/></g></svg>