<?xml version="1.0" encoding="UTF-8"?><svg id="Capa_1" xmlns="http://www.w3.org/2000/svg" viewBox="0 0 440 512"><defs><style>.cls-1{fill:#fff;}</style></defs><g id="Address_Book"><path class="cls-1" d="m380,512H100c-33.08,0-60-26.92-60-60v-16c0-11.05,8.95-20,20-20s20,8.95,20,20v16c0,11.03,8.97,20,20,20h280c11.03,0,20-8.97,20-20V60c0-11.03-8.97-20-20-20H100c-11.03,0-20,8.97-20,20v56c0,11.05-8.95,20-20,20H20c-11.05,0-20-8.95-20-20s8.95-20,20-20h20v-36C40,26.92,66.92,0,100,0h280c33.08,0,60,26.92,60,60v392c0,33.08-26.92,60-60,60Z"/><path class="cls-1" d="m60,256H20c-11.05,0-20-8.95-20-20s8.95-20,20-20h20v-20c0-11.05,8.95-20,20-20s20,8.95,20,20v40c0,11.05-8.95,20-20,20Z"/><path class="cls-1" d="m60,376H20c-11.05,0-20-8.95-20-20s8.95-20,20-20h20v-20c0-11.05,8.95-20,20-20s20,8.95,20,20v40c0,11.05-8.95,20-20,20Z"/><path class="cls-1" d="m240,196c-33.08,0-60-26.92-60-60s26.92-60,60-60,60,26.92,60,60-26.92,60-60,60Zm0-80c-11.03,0-20,8.97-20,20s8.97,20,20,20,20-8.97,20-20-8.97-20-20-20Z"/><path class="cls-1" d="m280,356h-80c-33.08,0-60-26.92-60-60,0-55.14,44.86-100,100-100s100,44.86,100,100c0,33.08-26.92,60-60,60Zm-40-120c-33.08,0-60,26.92-60,60,0,11.03,8.97,20,20,20h80c11.03,0,20-8.97,20-20,0-33.08-26.92-60-60-60Z"/><path class="cls-1" d="m300,436h-120c-11.05,0-20-8.95-20-20s8.95-20,20-20h120c11.05,0,20,8.95,20,20s-8.95,20-20,20Z"/></g></svg>